<?xml version="1.0" encoding="UTF-8" standalone="no"?>
<!DOCTYPE svg PUBLIC "-//W3C//DTD SVG 1.1//EN" "http://www.w3.org/Graphics/SVG/1.1/DTD/svg11.dtd">
<svg width="100%" height="100%" viewBox="0 0 512 513" version="1.1" xmlns="http://www.w3.org/2000/svg" xmlns:xlink="http://www.w3.org/1999/xlink" xml:space="preserve" xmlns:serif="http://www.serif.com/" style="fill-rule:evenodd;clip-rule:evenodd;stroke-linejoin:round;stroke-miterlimit:2;">
    <g id="Open_Doc" transform="matrix(12.2243,0,0,12.2243,40.1089,69.2126)">
        <g id="Layer_16">
            <g id="ClipView_13">
                <g>
                    <g>
                        <g id="Group_30">
                            <path d="M1.546,32.039L1.501,10.499C1.5,10.336 1.553,10.178 1.651,10.047L3.901,7.047C4.042,6.859 4.264,6.747 4.501,6.747L12.001,6.747C12.237,6.747 12.459,6.859 12.601,7.047L14.626,9.747L30.751,9.747C31.164,9.747 31.501,10.084 31.5,10.498L31.499,32.038C31.499,32.451 31.163,32.787 30.75,32.787L2.296,32.787C1.882,32.787 1.546,32.452 1.546,32.039Z" style="fill:rgb(231,193,70);fill-rule:nonzero;"/>
                            <g id="Group_31">
                                <path d="M2.251,10.497L2.296,32.037L30.75,32.037L30.751,10.497L14.251,10.497L12.001,7.497L4.501,7.497L2.251,10.497Z" style="fill:url(#_Linear1);fill-rule:nonzero;"/>
                            </g>
                        </g>
                        <g id="Group_32">
                            <g id="Group_33">
                                <path d="M1.679,32.106L5.143,14.106C5.211,13.753 5.52,13.497 5.88,13.497L34.335,13.497C34.805,13.497 35.16,13.927 35.071,14.389L31.607,32.389C31.539,32.742 31.23,32.997 30.871,32.997L2.416,32.997C1.945,32.997 1.59,32.568 1.679,32.106Z" style="fill:rgb(231,193,70);fill-rule:nonzero;"/>
                                <path d="M5.88,14.247L2.416,32.247L30.871,32.247L34.335,14.247L5.88,14.247Z" style="fill:url(#_Linear2);fill-rule:nonzero;"/>
                            </g>
                            <path d="M2.682,30.747L2.538,31.498L30.991,31.498L31.135,30.747L2.682,30.747Z" style="fill:rgb(231,193,70);fill-opacity:0.4;fill-rule:nonzero;"/>
                            <path d="M2.565,31.496L2.421,32.245L30.872,32.245L31.016,31.496L2.565,31.496Z" style="fill:rgb(255,253,234);fill-opacity:0.4;fill-rule:nonzero;"/>
                            <path d="M3.021,29.247L2.877,29.996L31.328,29.996L31.472,29.247L3.021,29.247Z" style="fill:rgb(231,193,70);fill-opacity:0.4;fill-rule:nonzero;"/>
                            <path d="M5.859,14.247L5.715,14.996L34.18,14.996L34.324,14.247L5.859,14.247Z" style="fill:rgb(255,253,234);fill-opacity:0.85;fill-rule:nonzero;"/>
                            <path d="M3.26,27.747L3.116,28.496L31.567,28.496L31.711,27.747L3.26,27.747Z" style="fill:rgb(231,193,70);fill-opacity:0.4;fill-rule:nonzero;"/>
                            <path d="M5.883,14.247L2.421,32.24L3.146,32.24L6.608,14.247L5.883,14.247Z" style="fill:rgb(255,253,234);fill-rule:nonzero;"/>
                        </g>
                        <g id="Group_34" transform="matrix(1,0,0,1,2.08473,0.899844)">
                            <path d="M22.049,10.706L24.946,7.925L24.667,7.577C24.241,7.094 23.736,6.657 23.16,6.29C20.657,4.698 17.518,4.89 15.25,6.535L14.354,7.313L13.715,8.128C13.147,8.853 12.017,8.095 12.473,7.295L12.963,6.434L12.981,6.402C16.315,1.156 23.285,-0.394 28.53,2.945L29.332,3.517L31.717,1.11C32.187,0.635 33,0.97 33,1.637L33,11.247C33,11.661 32.663,11.997 32.25,11.997L22.569,11.997C21.895,11.997 21.563,11.173 22.049,10.706Z" style="fill:rgb(32,135,18);fill-rule:nonzero;"/>
                            <path d="M13.125,7.665L13.615,6.804C16.726,1.908 23.232,0.461 28.128,3.578C28.431,3.77 28.725,3.978 29.002,4.199L29.383,4.53L32.25,1.637L32.25,11.247L22.569,11.247L25.933,8.018L25.681,7.643C25.123,6.876 24.412,6.197 23.563,5.657C20.397,3.642 16.312,4.208 13.798,6.806L13.125,7.665Z" style="fill:url(#_Linear3);fill-rule:nonzero;"/>
                        </g>
                    </g>
                </g>
            </g>
        </g>
    </g>
    <defs>
        <linearGradient id="_Linear1" x1="0" y1="0" x2="1" y2="0" gradientUnits="userSpaceOnUse" gradientTransform="matrix(3.53188e-16,5.768,-5.768,3.53188e-16,16.501,9.174)"><stop offset="0" style="stop-color:rgb(255,236,183);stop-opacity:1"/><stop offset="1" style="stop-color:rgb(255,219,118);stop-opacity:1"/></linearGradient>
        <linearGradient id="_Linear2" x1="0" y1="0" x2="1" y2="0" gradientUnits="userSpaceOnUse" gradientTransform="matrix(-4.54418,23.623,-23.623,-4.54418,21.4114,7.49721)"><stop offset="0" style="stop-color:rgb(255,240,192);stop-opacity:1"/><stop offset="1" style="stop-color:rgb(255,228,141);stop-opacity:1"/></linearGradient>
        <linearGradient id="_Linear3" x1="0" y1="0" x2="1" y2="0" gradientUnits="userSpaceOnUse" gradientTransform="matrix(-8.3679,-7.17312,7.17312,-8.3679,30.1843,11.0788)"><stop offset="0" style="stop-color:rgb(132,223,119);stop-opacity:1"/><stop offset="1" style="stop-color:rgb(62,189,41);stop-opacity:1"/></linearGradient>
    </defs>
</svg>
