<?xml version="1.0" encoding="UTF-8" standalone="no"?>
<!DOCTYPE svg PUBLIC "-//W3C//DTD SVG 1.1//EN" "http://www.w3.org/Graphics/SVG/1.1/DTD/svg11.dtd">
<svg width="100%" height="100%" viewBox="0 0 48 48" version="1.1" xmlns="http://www.w3.org/2000/svg" xmlns:xlink="http://www.w3.org/1999/xlink" xml:space="preserve" xmlns:serif="http://www.serif.com/" style="fill-rule:evenodd;clip-rule:evenodd;stroke-linejoin:round;stroke-miterlimit:2;">
    <g transform="matrix(1,0,0,1,-269,-434)">
        <path d="M277,437L302,437L309,444L309,479L277,479L277,437Z" style="fill:url(#_Linear1);"/>
        <path d="M278,438C278.084,437.961 301,438 301,438L308,445L308,478L278,478L278,438" style="fill:white;"/>
        <path d="M279,439L299,439L299,446L307,446L307,477L279,477L279,439Z" style="fill:url(#_Linear2);"/>
        <path d="M300,438L301,438L308,445L308,447L300,447L300,438Z" style="fill:url(#_Linear3);"/>
        <rect x="301" y="445" width="7" height="1" style="fill:rgb(139,140,141);"/>
        <rect x="300" y="438" width="1" height="8" style="fill:rgb(165,166,167);"/>
    </g>
    <defs>
        <linearGradient id="_Linear1" x1="0" y1="0" x2="1" y2="0" gradientUnits="userSpaceOnUse" gradientTransform="matrix(32,42,-42,32,277,437)"><stop offset="0" style="stop-color:rgb(165,166,167);stop-opacity:1"/><stop offset="1" style="stop-color:rgb(126,128,129);stop-opacity:1"/></linearGradient>
        <linearGradient id="_Linear2" x1="0" y1="0" x2="1" y2="0" gradientUnits="userSpaceOnUse" gradientTransform="matrix(2.32683e-15,38,-51.5714,3.15784e-15,292,439)"><stop offset="0" style="stop-color:rgb(249,250,250);stop-opacity:1"/><stop offset="1" style="stop-color:rgb(245,246,247);stop-opacity:1"/></linearGradient>
        <linearGradient id="_Linear3" x1="0" y1="0" x2="1" y2="0" gradientUnits="userSpaceOnUse" gradientTransform="matrix(5.51091e-16,9,-10.125,6.19977e-16,304,438)"><stop offset="0" style="stop-color:white;stop-opacity:1"/><stop offset="1" style="stop-color:rgb(231,232,232);stop-opacity:1"/></linearGradient>
    </defs>
</svg>
